<svg width="139" height="128" viewBox="0 0 139 128" fill="none" xmlns="http://www.w3.org/2000/svg">
<g clip-path="url(#clip0)">
<path d="M138.035 127.099C137.391 127.742 136.683 128.064 135.782 128.064C134.881 128.064 134.174 127.742 133.53 127.099C132.887 126.455 132.629 125.746 132.629 124.845C132.629 123.944 132.951 123.235 133.53 122.592C134.174 121.948 134.881 121.69 135.782 121.69C136.683 121.69 137.391 122.012 138.035 122.592C138.678 123.235 139 123.944 139 124.845C139 125.682 138.678 126.455 138.035 127.099ZM133.852 122.913C133.337 123.429 133.08 124.072 133.08 124.845C133.08 125.618 133.337 126.262 133.852 126.777C134.367 127.292 135.01 127.614 135.782 127.614C136.555 127.614 137.198 127.356 137.713 126.777C138.228 126.262 138.485 125.618 138.485 124.845C138.485 124.072 138.228 123.429 137.713 122.913C137.198 122.398 136.555 122.141 135.782 122.141C135.075 122.076 134.431 122.334 133.852 122.913ZM135.782 123.042C136.233 123.042 136.555 123.107 136.748 123.171C137.134 123.3 137.262 123.622 137.262 124.072C137.262 124.394 137.134 124.588 136.941 124.781C136.812 124.845 136.619 124.909 136.426 124.974C136.683 125.038 136.876 125.103 137.005 125.296C137.134 125.489 137.198 125.682 137.198 125.811V126.584H136.619V126.133C136.619 125.746 136.49 125.489 136.297 125.36C136.169 125.296 135.911 125.231 135.589 125.231H135.139V126.584H134.495V123.107H135.782V123.042ZM136.426 123.622C136.297 123.557 136.04 123.493 135.654 123.493H135.139V124.716H135.718C135.975 124.716 136.169 124.716 136.297 124.652C136.555 124.588 136.683 124.394 136.683 124.137C136.683 123.879 136.555 123.751 136.426 123.622Z" fill="black"/>
<path d="M114.804 0H24.6468C11.0685 0 0 10.7525 0 23.8873V104.048C0 117.376 10.6824 127.871 24.3894 127.871H114.611C128.318 127.871 139 117.376 139 104.048V23.8873C139 10.495 128.382 0 114.804 0ZM136.233 104.048C136.233 115.895 126.709 125.103 114.546 125.103H24.3894C12.2269 125.167 2.76713 115.895 2.76713 104.048V23.8873C2.76713 12.0402 12.3556 2.70423 24.6468 2.70423H114.868C126.902 2.70423 136.297 11.9759 136.297 23.8873V104.048H136.233Z" fill="#040301"/>
<path d="M136.233 104.048C136.233 115.895 126.709 125.103 114.546 125.103H24.3893C12.2268 125.167 2.76712 115.895 2.76712 104.048V23.8873C2.76712 12.0402 12.3555 2.70422 24.6468 2.70422H114.868C126.902 2.70422 136.297 11.9759 136.297 23.8873V104.048H136.233Z" fill="#FFAB00"/>
<path d="M111.329 78.6157H99.8097L97.8148 66.0604L90.4143 78.4869H78.7667L85.8454 85.9557L80.0537 98.5111L92.7954 90.9135L102.77 98.6398L100.904 85.9557" fill="white"/>
<path d="M119.373 76.1046H101.933L99.1662 58.7203L88.9986 75.9758H87.0681C85.9097 73.9799 85.4593 71.0825 85.4593 69.2797C85.4593 66.3179 85.6523 63.4205 85.6523 59.6217C85.6523 54.5996 84.1722 51.9598 80.2468 50.994V50.8652C88.5482 49.7062 92.3449 44.169 92.3449 36.4427C92.3449 25.4326 85.0088 23.0503 75.4204 23.0503H49.6153L38.6755 74.8169H52.3824L56.3722 55.9517H65.5102C70.4009 55.9517 72.3958 58.334 72.3958 62.9054C72.3958 66.3823 72.0097 69.1509 72.0097 71.7907C72.0097 72.7565 72.2028 75.0744 72.9107 75.9758L82.8208 86.4708L74.2621 104.821L92.538 93.9396L106.181 104.435L103.671 87.1147L119.373 76.1046ZM69.6287 46.2938H58.6889L61.3273 33.8028H71.4949C75.0986 33.8028 78.8954 34.7686 78.8954 39.1469C78.8954 44.7485 74.5838 46.2938 69.6287 46.2938ZM92.7954 90.9135L80.0537 98.5111L85.9097 86.0201L78.831 78.5513H90.4787L97.8148 66.1247L99.8097 78.6801H111.393L100.968 85.9557L102.834 98.7042L92.7954 90.9135Z" fill="#040301"/>
</g>
<defs>
<clipPath id="clip0">
<rect width="139" height="128" fill="white"/>
</clipPath>
</defs>
</svg>
